<?xml version="1.0" encoding="UTF-8"?>
<svg width="89px" height="11px" viewBox="0 0 89 11" version="1.1" xmlns="http://www.w3.org/2000/svg" xmlns:xlink="http://www.w3.org/1999/xlink">
    <title>logo</title>
    <g id="Page-1" stroke="none" stroke-width="1" fill="none" fill-rule="evenodd">
        <g id="Desktop" transform="translate(-320.000000, -394.000000)" fill="#FFFFFF" fill-rule="nonzero">
            <path d="M322.357741,404.606422 L322.357741,400.691103 L326.196942,400.691103 L326.196942,404.606422 L328.547084,404.606422 L328.547084,394.86332 L326.196942,394.86332 L326.196942,398.773881 L322.357741,398.773881 L322.357741,394.86332 L320.002841,394.86332 L320.002841,404.606422 L322.357741,404.606422 Z M332.37677,404.606422 L332.37677,394.86332 L330.02187,394.86332 L330.02187,404.606422 L332.37677,404.606422 Z M337.452888,404.606422 C338.442422,404.606422 339.297164,404.41137 340.017113,404.021265 C340.737062,403.63116 341.291296,403.072169 341.679815,402.344291 C342.068334,401.616412 342.262594,400.74502 342.262594,399.730114 C342.262594,398.715207 342.067541,397.844608 341.677437,397.118315 C341.287332,396.392023 340.733098,395.834617 340.014734,395.446098 C339.296371,395.05758 338.440836,394.86332 337.448131,394.86332 L337.448131,394.86332 L333.851556,394.86332 L333.851556,404.606422 L337.452888,404.606422 Z M337.362498,402.59881 L336.206457,402.59881 L336.206457,396.870932 L337.329197,396.870932 C338.166495,396.870932 338.804776,397.085014 339.24404,397.513177 C339.683304,397.941341 339.902936,398.68032 339.902936,399.730114 C339.902936,400.783079 339.68489,401.524437 339.248797,401.954186 C338.812705,402.383935 338.183938,402.59881 337.362498,402.59881 L337.362498,402.59881 Z M347.234049,404.606422 C348.223583,404.606422 349.078325,404.41137 349.798274,404.021265 C350.518223,403.63116 351.072457,403.072169 351.460976,402.344291 C351.849495,401.616412 352.043754,400.74502 352.043754,399.730114 C352.043754,398.715207 351.848702,397.844608 351.458597,397.118315 C351.068493,396.392023 350.514259,395.834617 349.795895,395.446098 C349.077532,395.05758 348.221997,394.86332 347.229292,394.86332 L347.229292,394.86332 L343.632717,394.86332 L343.632717,404.606422 L347.234049,404.606422 Z M347.143659,402.59881 L345.987617,402.59881 L345.987617,396.870932 L347.110358,396.870932 C347.947655,396.870932 348.585936,397.085014 349.025201,397.513177 C349.464465,397.941341 349.684097,398.68032 349.684097,399.730114 C349.684097,400.783079 349.466051,401.524437 349.029958,401.954186 C348.593865,402.383935 347.965099,402.59881 347.143659,402.59881 L347.143659,402.59881 Z M360.207408,404.606422 L360.207408,402.693958 L355.768778,402.693958 L355.768778,400.691103 L359.86012,400.691103 L359.86012,398.773881 L355.768778,398.773881 L355.768778,396.775784 L360.207408,396.775784 L360.207408,394.86332 L353.413878,394.86332 L353.413878,404.606422 L360.207408,404.606422 Z M364.037094,404.606422 L364.037094,398.983206 L364.09894,398.983206 L367.9762,404.606422 L369.974297,404.606422 L369.974297,394.86332 L367.624154,394.86332 L367.624154,400.477021 L367.543279,400.477021 L363.708835,394.86332 L361.682194,394.86332 L361.682194,404.606422 L364.037094,404.606422 Z M380.740234,404.606422 L380.740234,402.693958 L376.686951,402.693958 L376.686951,394.86332 L374.332051,394.86332 L374.332051,404.606422 L380.740234,404.606422 Z M384.065638,404.606422 L384.707884,402.560751 L388.071347,402.560751 L388.713593,404.606422 L391.244516,404.606422 L387.95717,394.86332 L384.822061,394.86332 L381.534715,404.606422 L384.065638,404.606422 Z M387.509977,400.771979 L385.269254,400.771979 L386.349178,397.318125 L386.425296,397.318125 L387.509977,400.771979 Z M396.667922,404.606422 C397.387871,404.606422 397.999986,404.48828 398.504268,404.251998 C399.00855,404.015715 399.393897,403.692213 399.66031,403.281493 C399.926723,402.870773 400.059929,402.403758 400.059929,401.880447 C400.059929,401.411052 399.958439,401.004297 399.755457,400.66018 C399.552476,400.316064 399.283685,400.046479 398.949083,399.851427 C398.614481,399.656374 398.250542,399.550919 397.857265,399.535061 L397.857265,399.535061 L397.857265,399.439914 C398.393263,399.328908 398.830941,399.087868 399.1703,398.716793 C399.50966,398.345718 399.679339,397.882667 399.679339,397.32764 C399.679339,396.591833 399.399447,395.997161 398.839663,395.543625 C398.279879,395.090088 397.452888,394.86332 396.358692,394.86332 L396.358692,394.86332 L392.295895,394.86332 L392.295895,404.606422 L396.667922,404.606422 Z M395.954316,398.869029 L394.650795,398.869029 L394.650795,396.732968 L395.992375,396.732968 C396.385651,396.732968 396.698052,396.827323 396.929577,397.016032 C397.161103,397.204741 397.276866,397.460846 397.276866,397.784348 C397.276866,398.126879 397.153174,398.393292 396.90579,398.583587 C396.658407,398.773881 396.341249,398.869029 395.954316,398.869029 L395.954316,398.869029 Z M396.106552,402.70823 L394.650795,402.70823 L394.650795,400.386631 L396.149368,400.386631 C396.599733,400.386631 396.954157,400.496844 397.212641,400.717269 C397.471125,400.937694 397.600367,401.23503 397.600367,401.609276 C397.600367,401.954979 397.479054,402.224563 397.236428,402.41803 C396.993802,402.611496 396.617176,402.70823 396.106552,402.70823 L396.106552,402.70823 Z M404.974297,404.730114 C406.189013,404.730114 407.137316,404.470044 407.819206,403.949904 C408.501097,403.429765 408.843627,402.706644 408.846799,401.780542 C408.843627,401.003504 408.585936,400.373945 408.073726,399.891864 C407.561515,399.409784 406.824915,399.062495 405.863926,398.849999 L405.863926,398.849999 L405.026628,398.659705 C404.585778,398.564557 404.235318,398.435315 403.975248,398.271979 C403.715178,398.108642 403.589901,397.882667 403.599416,397.594053 C403.602587,397.32764 403.71835,397.108008 403.946704,396.935156 C404.175058,396.762305 404.517589,396.67588 404.974297,396.67588 C405.434176,396.67588 405.788601,396.773406 406.03757,396.968458 C406.286539,397.16351 406.426882,397.435474 406.458597,397.784348 L406.458597,397.784348 L408.713593,397.784348 C408.707249,397.175404 408.550256,396.641785 408.242613,396.183491 C407.934969,395.725198 407.502841,395.368395 406.946228,395.113082 C406.389615,394.85777 405.733891,394.730114 404.979054,394.730114 C404.236904,394.730114 403.578007,394.856184 403.002365,395.108325 C402.426723,395.360466 401.975565,395.713304 401.648892,396.166841 C401.322219,396.620377 401.160469,397.150031 401.16364,397.755803 C401.160469,398.494782 401.402302,399.080732 401.88914,399.513653 C402.375978,399.946574 403.039631,400.259768 403.880101,400.453234 L403.880101,400.453234 L404.898179,400.691103 C405.434176,400.814795 405.827452,400.958309 406.078007,401.121646 C406.328562,401.284982 406.455426,401.503028 406.458597,401.775784 C406.455426,402.073913 406.320633,402.316539 406.054221,402.503663 C405.787808,402.690786 405.418318,402.784348 404.945752,402.784348 C404.425613,402.784348 404.005378,402.66462 403.685048,402.425166 C403.364718,402.185711 403.191867,401.831287 403.166495,401.361893 L403.166495,401.361893 L400.911499,401.361893 C400.927357,402.500491 401.302397,403.346511 402.036618,403.899952 C402.77084,404.453393 403.750066,404.730114 404.974297,404.730114 Z" id="logo"></path>
        </g>
    </g>
</svg>